<?xml version="1.0" encoding="UTF-8" standalone="no"?>
<!DOCTYPE svg PUBLIC "-//W3C//DTD SVG 1.1//EN"
 "http://www.w3.org/Graphics/SVG/1.1/DTD/svg11.dtd">
<!-- Generated by graphviz version 2.44.0 (0)
 -->
<!-- Title: G Pages: 1 -->
<svg width="583pt" height="260pt"
 viewBox="0.00 0.00 582.50 260.00" xmlns="http://www.w3.org/2000/svg" xmlns:xlink="http://www.w3.org/1999/xlink">
<g id="graph0" class="graph" transform="scale(1 1) rotate(0) translate(4 256)">
<title>G</title>
<polygon fill="white" stroke="transparent" points="-4,4 -4,-256 578.5,-256 578.5,4 -4,4"/>
<!-- RootDecisionHub -->
<g id="node1" class="node DecisionHub">
<title>RootDecisionHub</title>
<polygon fill="none" stroke="black" points="239,-252 115.67,-234 239,-216 362.33,-234 239,-252"/>
<text text-anchor="middle" x="239" y="-230.3" font-family="Times-Roman" font-size="14.00">RootDecisionHub</text>
</g>
<!-- ProducerA -->
<g id="node2" class="node GaudiAlgorithm">
<title>ProducerA</title>
<polygon fill="none" stroke="black" points="88,-180 0,-180 0,-144 88,-144 88,-180"/>
<text text-anchor="middle" x="44" y="-158.3" font-family="Times-Roman" font-size="14.00">ProducerA</text>
</g>
<!-- RootDecisionHub&#45;&gt;ProducerA -->
<g id="edge1" class="edge">
<title>RootDecisionHub&#45;&gt;ProducerA</title>
<path fill="none" stroke="black" d="M205.03,-220.81C175.41,-210.17 131.93,-194.56 97.61,-182.25"/>
<polygon fill="black" stroke="black" points="98.79,-178.95 88.2,-178.86 96.42,-185.54 98.79,-178.95"/>
</g>
<!-- TransformerB -->
<g id="node3" class="node GaudiAlgorithm">
<title>TransformerB</title>
<polygon fill="none" stroke="black" points="216,-180 106,-180 106,-144 216,-144 216,-180"/>
<text text-anchor="middle" x="161" y="-158.3" font-family="Times-Roman" font-size="14.00">TransformerB</text>
</g>
<!-- RootDecisionHub&#45;&gt;TransformerB -->
<g id="edge2" class="edge">
<title>RootDecisionHub&#45;&gt;TransformerB</title>
<path fill="none" stroke="black" d="M222.46,-218.15C212.36,-209.09 199.21,-197.29 187.66,-186.93"/>
<polygon fill="black" stroke="black" points="189.77,-184.11 179.99,-180.04 185.09,-189.32 189.77,-184.11"/>
</g>
<!-- Sequencer -->
<g id="node4" class="node DecisionHub">
<title>Sequencer</title>
<polygon fill="none" stroke="black" points="318,-180 234.21,-162 318,-144 401.79,-162 318,-180"/>
<text text-anchor="middle" x="318" y="-158.3" font-family="Times-Roman" font-size="14.00">Sequencer</text>
</g>
<!-- RootDecisionHub&#45;&gt;Sequencer -->
<g id="edge3" class="edge">
<title>RootDecisionHub&#45;&gt;Sequencer</title>
<path fill="none" stroke="black" d="M255.75,-218.15C267.05,-208.15 282.11,-194.8 294.58,-183.75"/>
<polygon fill="black" stroke="black" points="297.18,-186.12 302.34,-176.87 292.54,-180.88 297.18,-186.12"/>
</g>
<!-- TransformerG -->
<g id="node10" class="node GaudiAlgorithm">
<title>TransformerG</title>
<polygon fill="none" stroke="black" points="530.5,-180 419.5,-180 419.5,-144 530.5,-144 530.5,-180"/>
<text text-anchor="middle" x="475" y="-158.3" font-family="Times-Roman" font-size="14.00">TransformerG</text>
</g>
<!-- RootDecisionHub&#45;&gt;TransformerG -->
<g id="edge4" class="edge">
<title>RootDecisionHub&#45;&gt;TransformerG</title>
<path fill="none" stroke="black" d="M277.44,-221.6C313.19,-210.99 367.17,-194.98 409.67,-182.38"/>
<polygon fill="black" stroke="black" points="410.79,-185.7 419.38,-179.5 408.8,-178.98 410.79,-185.7"/>
</g>
<!-- TransformerC -->
<g id="node5" class="node GaudiAlgorithm">
<title>TransformerC</title>
<polygon fill="none" stroke="black" points="244,-108 134,-108 134,-72 244,-72 244,-108"/>
<text text-anchor="middle" x="189" y="-86.3" font-family="Times-Roman" font-size="14.00">TransformerC</text>
</g>
<!-- Sequencer&#45;&gt;TransformerC -->
<g id="edge5" class="edge">
<title>Sequencer&#45;&gt;TransformerC</title>
<path fill="none" stroke="black" d="M295.53,-148.81C277.34,-138.94 251.25,-124.78 229.44,-112.94"/>
<polygon fill="black" stroke="black" points="230.85,-109.73 220.39,-108.03 227.51,-115.88 230.85,-109.73"/>
</g>
<!-- TransformerD -->
<g id="node6" class="node GaudiAlgorithm">
<title>TransformerD</title>
<polygon fill="none" stroke="black" points="373.5,-108 262.5,-108 262.5,-72 373.5,-72 373.5,-108"/>
<text text-anchor="middle" x="318" y="-86.3" font-family="Times-Roman" font-size="14.00">TransformerD</text>
</g>
<!-- Sequencer&#45;&gt;TransformerD -->
<g id="edge6" class="edge">
<title>Sequencer&#45;&gt;TransformerD</title>
<path fill="none" stroke="black" d="M318,-143.7C318,-135.98 318,-126.71 318,-118.11"/>
<polygon fill="black" stroke="black" points="321.5,-118.1 318,-108.1 314.5,-118.1 321.5,-118.1"/>
</g>
<!-- InnerSequencer -->
<g id="node7" class="node DecisionHub">
<title>InnerSequencer</title>
<polygon fill="none" stroke="black" points="520,-108 392,-108 392,-72 520,-72 520,-108"/>
<text text-anchor="middle" x="456" y="-86.3" font-family="Times-Roman" font-size="14.00">InnerSequencer</text>
</g>
<!-- Sequencer&#45;&gt;InnerSequencer -->
<g id="edge7" class="edge">
<title>Sequencer&#45;&gt;InnerSequencer</title>
<path fill="none" stroke="black" d="M341.72,-148.97C361.32,-139.03 389.63,-124.67 413.17,-112.72"/>
<polygon fill="black" stroke="black" points="414.93,-115.76 422.26,-108.11 411.76,-109.52 414.93,-115.76"/>
</g>
<!-- TransformerE -->
<g id="node8" class="node GaudiAlgorithm">
<title>TransformerE</title>
<polygon fill="none" stroke="black" points="447,-36 337,-36 337,0 447,0 447,-36"/>
<text text-anchor="middle" x="392" y="-14.3" font-family="Times-Roman" font-size="14.00">TransformerE</text>
</g>
<!-- InnerSequencer&#45;&gt;TransformerE -->
<g id="edge8" class="edge">
<title>InnerSequencer&#45;&gt;TransformerE</title>
<path fill="none" stroke="black" d="M440.18,-71.7C432.43,-63.22 422.96,-52.86 414.48,-43.58"/>
<polygon fill="black" stroke="black" points="416.97,-41.12 407.64,-36.1 411.8,-45.85 416.97,-41.12"/>
</g>
<!-- TransformerF -->
<g id="node9" class="node GaudiAlgorithm">
<title>TransformerF</title>
<polygon fill="none" stroke="black" points="574.5,-36 465.5,-36 465.5,0 574.5,0 574.5,-36"/>
<text text-anchor="middle" x="520" y="-14.3" font-family="Times-Roman" font-size="14.00">TransformerF</text>
</g>
<!-- InnerSequencer&#45;&gt;TransformerF -->
<g id="edge9" class="edge">
<title>InnerSequencer&#45;&gt;TransformerF</title>
<path fill="none" stroke="black" d="M471.82,-71.7C479.57,-63.22 489.04,-52.86 497.52,-43.58"/>
<polygon fill="black" stroke="black" points="500.2,-45.85 504.36,-36.1 495.03,-41.12 500.2,-45.85"/>
</g>
</g>
</svg>
