<?xml version="1.0" encoding="UTF-8" standalone="no"?>
<!DOCTYPE svg PUBLIC "-//W3C//DTD SVG 1.1//EN"
 "http://www.w3.org/Graphics/SVG/1.1/DTD/svg11.dtd">
<!-- Generated by graphviz version 2.44.0 (0)
 -->
<!-- Title: G Pages: 1 -->
<svg width="1131pt" height="44pt"
 viewBox="0.00 0.00 1131.00 44.00" xmlns="http://www.w3.org/2000/svg" xmlns:xlink="http://www.w3.org/1999/xlink">
<g id="graph0" class="graph" transform="scale(1 1) rotate(0) translate(4 40)">
<title>G</title>
<polygon fill="white" stroke="transparent" points="-4,4 -4,-40 1127,-40 1127,4 -4,4"/>
<!-- 1 -->
<g id="node1" class="node">
<title>1</title>
<polygon fill="none" stroke="black" points="88,-36 0,-36 0,0 88,0 88,-36"/>
<text text-anchor="middle" x="44" y="-14.3" font-family="Times-Roman" font-size="14.00">ProducerA</text>
</g>
<!-- 6 -->
<g id="node2" class="node">
<title>6</title>
<ellipse fill="none" stroke="black" cx="151" cy="-18" rx="27" ry="18"/>
<text text-anchor="middle" x="151" y="-14.3" font-family="Times-Roman" font-size="14.00">a</text>
</g>
<!-- 1&#45;&gt;6 -->
<g id="edge1" class="edge">
<title>1&#45;&gt;6</title>
<path fill="none" stroke="black" d="M88.01,-18C96.53,-18 105.4,-18 113.67,-18"/>
<polygon fill="black" stroke="black" points="113.76,-21.5 123.76,-18 113.76,-14.5 113.76,-21.5"/>
</g>
<!-- 2 -->
<g id="node3" class="node">
<title>2</title>
<polygon fill="none" stroke="black" points="324,-36 214,-36 214,0 324,0 324,-36"/>
<text text-anchor="middle" x="269" y="-14.3" font-family="Times-Roman" font-size="14.00">TransformerA</text>
</g>
<!-- 6&#45;&gt;2 -->
<g id="edge2" class="edge">
<title>6&#45;&gt;2</title>
<path fill="none" stroke="black" d="M178.03,-18C185.7,-18 194.45,-18 203.42,-18"/>
<polygon fill="black" stroke="black" points="203.58,-21.5 213.58,-18 203.58,-14.5 203.58,-21.5"/>
</g>
<!-- 7 -->
<g id="node4" class="node">
<title>7</title>
<ellipse fill="none" stroke="black" cx="387" cy="-18" rx="27" ry="18"/>
<text text-anchor="middle" x="387" y="-14.3" font-family="Times-Roman" font-size="14.00">b</text>
</g>
<!-- 2&#45;&gt;7 -->
<g id="edge3" class="edge">
<title>2&#45;&gt;7</title>
<path fill="none" stroke="black" d="M324.26,-18C332.87,-18 341.59,-18 349.66,-18"/>
<polygon fill="black" stroke="black" points="349.83,-21.5 359.83,-18 349.83,-14.5 349.83,-21.5"/>
</g>
<!-- 3 -->
<g id="node5" class="node">
<title>3</title>
<polygon fill="none" stroke="black" points="560,-36 450,-36 450,0 560,0 560,-36"/>
<text text-anchor="middle" x="505" y="-14.3" font-family="Times-Roman" font-size="14.00">TransformerB</text>
</g>
<!-- 7&#45;&gt;3 -->
<g id="edge4" class="edge">
<title>7&#45;&gt;3</title>
<path fill="none" stroke="black" d="M414.03,-18C421.7,-18 430.45,-18 439.42,-18"/>
<polygon fill="black" stroke="black" points="439.58,-21.5 449.58,-18 439.58,-14.5 439.58,-21.5"/>
</g>
<!-- 8 -->
<g id="node6" class="node">
<title>8</title>
<ellipse fill="none" stroke="black" cx="623" cy="-18" rx="27" ry="18"/>
<text text-anchor="middle" x="623" y="-14.3" font-family="Times-Roman" font-size="14.00">c</text>
</g>
<!-- 3&#45;&gt;8 -->
<g id="edge5" class="edge">
<title>3&#45;&gt;8</title>
<path fill="none" stroke="black" d="M560.26,-18C568.87,-18 577.59,-18 585.66,-18"/>
<polygon fill="black" stroke="black" points="585.83,-21.5 595.83,-18 585.83,-14.5 585.83,-21.5"/>
</g>
<!-- 4 -->
<g id="node7" class="node">
<title>4</title>
<polygon fill="none" stroke="black" points="796,-36 686,-36 686,0 796,0 796,-36"/>
<text text-anchor="middle" x="741" y="-14.3" font-family="Times-Roman" font-size="14.00">TransformerC</text>
</g>
<!-- 8&#45;&gt;4 -->
<g id="edge6" class="edge">
<title>8&#45;&gt;4</title>
<path fill="none" stroke="black" d="M650.03,-18C657.7,-18 666.45,-18 675.42,-18"/>
<polygon fill="black" stroke="black" points="675.58,-21.5 685.58,-18 675.58,-14.5 675.58,-21.5"/>
</g>
<!-- 9 -->
<g id="node8" class="node">
<title>9</title>
<ellipse fill="none" stroke="black" cx="859" cy="-18" rx="27" ry="18"/>
<text text-anchor="middle" x="859" y="-14.3" font-family="Times-Roman" font-size="14.00">d</text>
</g>
<!-- 4&#45;&gt;9 -->
<g id="edge7" class="edge">
<title>4&#45;&gt;9</title>
<path fill="none" stroke="black" d="M796.26,-18C804.87,-18 813.59,-18 821.66,-18"/>
<polygon fill="black" stroke="black" points="821.83,-21.5 831.83,-18 821.83,-14.5 821.83,-21.5"/>
</g>
<!-- 5 -->
<g id="node9" class="node">
<title>5</title>
<polygon fill="none" stroke="black" points="1033,-36 922,-36 922,0 1033,0 1033,-36"/>
<text text-anchor="middle" x="977.5" y="-14.3" font-family="Times-Roman" font-size="14.00">TransformerD</text>
</g>
<!-- 9&#45;&gt;5 -->
<g id="edge8" class="edge">
<title>9&#45;&gt;5</title>
<path fill="none" stroke="black" d="M886.14,-18C893.85,-18 902.64,-18 911.64,-18"/>
<polygon fill="black" stroke="black" points="911.85,-21.5 921.85,-18 911.85,-14.5 911.85,-21.5"/>
</g>
<!-- 10 -->
<g id="node10" class="node">
<title>10</title>
<ellipse fill="none" stroke="black" cx="1096" cy="-18" rx="27" ry="18"/>
<text text-anchor="middle" x="1096" y="-14.3" font-family="Times-Roman" font-size="14.00">e</text>
</g>
<!-- 5&#45;&gt;10 -->
<g id="edge9" class="edge">
<title>5&#45;&gt;10</title>
<path fill="none" stroke="black" d="M1033.34,-18C1041.96,-18 1050.67,-18 1058.73,-18"/>
<polygon fill="black" stroke="black" points="1058.88,-21.5 1068.88,-18 1058.88,-14.5 1058.88,-21.5"/>
</g>
</g>
</svg>
