<?xml version="1.0" encoding="UTF-8" standalone="no"?>
<!DOCTYPE svg PUBLIC "-//W3C//DTD SVG 1.1//EN"
 "http://www.w3.org/Graphics/SVG/1.1/DTD/svg11.dtd">
<!-- Generated by graphviz version 2.44.0 (0)
 -->
<!-- Title: mygraph Pages: 1 -->
<svg width="1391pt" height="1717pt"
 viewBox="0.00 0.00 1391.09 1717.00" xmlns="http://www.w3.org/2000/svg" xmlns:xlink="http://www.w3.org/1999/xlink">
<g id="graph0" class="graph" transform="scale(1 1) rotate(0) translate(4 1713)">
<title>mygraph</title>
<polygon fill="white" stroke="transparent" points="-4,4 -4,-1713 1387.09,-1713 1387.09,4 -4,4"/>
<!-- v5 -->
<g id="node1" class="node">
<title>v5</title>
<polygon fill="none" stroke="#aec7e8" stroke-width="2" points="302.5,-1312 7.5,-1312 7.5,-1244 302.5,-1244 302.5,-1312"/>
<text text-anchor="middle" x="155" y="-1296.8" font-family="Times-Roman" font-size="14.00">TransformerA</text>
<text text-anchor="middle" x="155" y="-1281.8" font-family="Times-Roman" font-size="14.00">Task: FrameworkDemo.BoundAlgorithm</text>
<text text-anchor="middle" x="155" y="-1266.8" font-family="Times-Roman" font-size="14.00">(W: 1, TID: 1)</text>
<text text-anchor="middle" x="155" y="-1251.8" font-family="Times-Roman" font-size="14.00">[+4.76 s &#45;&gt; +4.852 s (diff: 91.463 ms)]</text>
</g>
<!-- v6 -->
<g id="node3" class="node">
<title>v6</title>
<polygon fill="none" stroke="#aec7e8" stroke-width="2" points="469.5,-1019 174.5,-1019 174.5,-951 469.5,-951 469.5,-1019"/>
<text text-anchor="middle" x="322" y="-1003.8" font-family="Times-Roman" font-size="14.00">TransformerB</text>
<text text-anchor="middle" x="322" y="-988.8" font-family="Times-Roman" font-size="14.00">Task: FrameworkDemo.BoundAlgorithm</text>
<text text-anchor="middle" x="322" y="-973.8" font-family="Times-Roman" font-size="14.00">(W: 1, TID: 1)</text>
<text text-anchor="middle" x="322" y="-958.8" font-family="Times-Roman" font-size="14.00">[+4.885 s &#45;&gt; +4.932 s (diff: 46.86 ms)]</text>
</g>
<!-- v5&#45;&gt;v6 -->
<g id="edge7" class="edge">
<title>v5&#45;&gt;v6</title>
<path fill="none" stroke="black" d="M150.52,-1243.87C146.4,-1200.3 145.37,-1123.04 180,-1070 192.15,-1051.39 209.99,-1036.34 228.95,-1024.4"/>
<polygon fill="black" stroke="black" points="230.95,-1027.28 237.72,-1019.14 227.34,-1021.28 230.95,-1027.28"/>
<text text-anchor="middle" x="186.5" y="-1127.8" font-family="Times-Roman" font-size="14.00">syncdep</text>
</g>
<!-- a14 -->
<g id="node19" class="node">
<title>a14</title>
<ellipse fill="none" stroke="black" cx="322" cy="-1175" rx="139.18" ry="18"/>
<text text-anchor="middle" x="322" y="-1171.3" font-family="Times-Roman" font-size="14.00">Data: 0x1fe18a5571bd0595</text>
</g>
<!-- v5&#45;&gt;a14 -->
<g id="edge22" class="edge">
<title>v5&#45;&gt;a14</title>
<path fill="none" stroke="black" d="M209.68,-1243.93C234.6,-1228.86 263.41,-1211.43 285.62,-1198"/>
<polygon fill="black" stroke="black" points="287.65,-1200.87 294.39,-1192.7 284.03,-1194.88 287.65,-1200.87"/>
<text text-anchor="middle" x="284" y="-1214.8" font-family="Times-Roman" font-size="14.00">result</text>
</g>
<!-- v4 -->
<g id="node2" class="node">
<title>v4</title>
<polygon fill="none" stroke="#aec7e8" stroke-width="2" points="462,-1605 158,-1605 158,-1537 462,-1537 462,-1605"/>
<text text-anchor="middle" x="310" y="-1589.8" font-family="Times-Roman" font-size="14.00">ProducerA</text>
<text text-anchor="middle" x="310" y="-1574.8" font-family="Times-Roman" font-size="14.00">Task: FrameworkDemo.BoundAlgorithm</text>
<text text-anchor="middle" x="310" y="-1559.8" font-family="Times-Roman" font-size="14.00">(W: 1, TID: 1)</text>
<text text-anchor="middle" x="310" y="-1544.8" font-family="Times-Roman" font-size="14.00">[+4.231 s &#45;&gt; +4.39 s (diff: 159.369 ms)]</text>
</g>
<!-- v4&#45;&gt;v5 -->
<g id="edge6" class="edge">
<title>v4&#45;&gt;v5</title>
<path fill="none" stroke="black" d="M228.91,-1537C207.29,-1524.27 186.28,-1507.48 173,-1486 142.35,-1436.43 143.22,-1366.99 148.03,-1322.5"/>
<polygon fill="black" stroke="black" points="151.53,-1322.65 149.25,-1312.3 144.58,-1321.82 151.53,-1322.65"/>
<text text-anchor="middle" x="181.5" y="-1420.8" font-family="Times-Roman" font-size="14.00">syncdep</text>
</g>
<!-- a12 -->
<g id="node15" class="node">
<title>a12</title>
<ellipse fill="none" stroke="black" cx="322" cy="-1468" rx="140.28" ry="18"/>
<text text-anchor="middle" x="322" y="-1464.3" font-family="Times-Roman" font-size="14.00">Data: 0xc416b9153a27631a</text>
</g>
<!-- v4&#45;&gt;a12 -->
<g id="edge23" class="edge">
<title>v4&#45;&gt;a12</title>
<path fill="none" stroke="black" d="M313.93,-1536.93C315.48,-1523.85 317.25,-1508.99 318.73,-1496.51"/>
<polygon fill="black" stroke="black" points="322.25,-1496.6 319.95,-1486.26 315.29,-1495.78 322.25,-1496.6"/>
<text text-anchor="middle" x="338" y="-1507.8" font-family="Times-Roman" font-size="14.00">result</text>
</g>
<!-- v7 -->
<g id="node4" class="node">
<title>v7</title>
<polygon fill="none" stroke="#aec7e8" stroke-width="2" points="615,-726 311,-726 311,-658 615,-658 615,-726"/>
<text text-anchor="middle" x="463" y="-710.8" font-family="Times-Roman" font-size="14.00">TransformerC</text>
<text text-anchor="middle" x="463" y="-695.8" font-family="Times-Roman" font-size="14.00">Task: FrameworkDemo.BoundAlgorithm</text>
<text text-anchor="middle" x="463" y="-680.8" font-family="Times-Roman" font-size="14.00">(W: 1, TID: 1)</text>
<text text-anchor="middle" x="463" y="-665.8" font-family="Times-Roman" font-size="14.00">[+4.935 s &#45;&gt; +4.971 s (diff: 35.451 ms)]</text>
</g>
<!-- v6&#45;&gt;v7 -->
<g id="edge8" class="edge">
<title>v6&#45;&gt;v7</title>
<path fill="none" stroke="black" d="M310.8,-950.81C298.34,-907.5 283.89,-830.9 316,-777 327.22,-758.17 344.38,-743.18 363.06,-731.39"/>
<polygon fill="black" stroke="black" points="364.96,-734.34 371.74,-726.2 361.36,-728.33 364.96,-734.34"/>
<text text-anchor="middle" x="328.5" y="-834.8" font-family="Times-Roman" font-size="14.00">syncdep</text>
</g>
<!-- a16 -->
<g id="node14" class="node">
<title>a16</title>
<ellipse fill="none" stroke="black" cx="463" cy="-882" rx="139.98" ry="18"/>
<text text-anchor="middle" x="463" y="-878.3" font-family="Times-Roman" font-size="14.00">Data: 0x7bac79a5a952e430</text>
</g>
<!-- v6&#45;&gt;a16 -->
<g id="edge24" class="edge">
<title>v6&#45;&gt;a16</title>
<path fill="none" stroke="black" d="M368.17,-950.93C388.78,-936.16 412.56,-919.13 431.15,-905.81"/>
<polygon fill="black" stroke="black" points="433.21,-908.64 439.3,-899.98 429.13,-902.95 433.21,-908.64"/>
<text text-anchor="middle" x="434" y="-921.8" font-family="Times-Roman" font-size="14.00">result</text>
</g>
<!-- v8 -->
<g id="node7" class="node">
<title>v8</title>
<polygon fill="none" stroke="#aec7e8" stroke-width="2" points="767,-433 463,-433 463,-365 767,-365 767,-433"/>
<text text-anchor="middle" x="615" y="-417.8" font-family="Times-Roman" font-size="14.00">TransformerD</text>
<text text-anchor="middle" x="615" y="-402.8" font-family="Times-Roman" font-size="14.00">Task: FrameworkDemo.BoundAlgorithm</text>
<text text-anchor="middle" x="615" y="-387.8" font-family="Times-Roman" font-size="14.00">(W: 1, TID: 1)</text>
<text text-anchor="middle" x="615" y="-372.8" font-family="Times-Roman" font-size="14.00">[+4.974 s &#45;&gt; +4.998 s (diff: 24.306 ms)]</text>
</g>
<!-- v7&#45;&gt;v8 -->
<g id="edge9" class="edge">
<title>v7&#45;&gt;v8</title>
<path fill="none" stroke="black" d="M454.66,-657.98C445.67,-614.53 436.72,-537.41 470,-484 481.68,-465.26 499.17,-450.26 518,-438.41"/>
<polygon fill="black" stroke="black" points="519.95,-441.33 526.74,-433.19 516.36,-435.32 519.95,-441.33"/>
<text text-anchor="middle" x="479.5" y="-541.8" font-family="Times-Roman" font-size="14.00">syncdep</text>
</g>
<!-- a18 -->
<g id="node11" class="node">
<title>a18</title>
<ellipse fill="none" stroke="black" cx="615" cy="-589" rx="141.88" ry="18"/>
<text text-anchor="middle" x="615" y="-585.3" font-family="Times-Roman" font-size="14.00">Data: 0xd7772331e0e83743</text>
</g>
<!-- v7&#45;&gt;a18 -->
<g id="edge25" class="edge">
<title>v7&#45;&gt;a18</title>
<path fill="none" stroke="black" d="M512.77,-657.93C535.09,-643.09 560.86,-625.97 580.94,-612.63"/>
<polygon fill="black" stroke="black" points="583.06,-615.43 589.45,-606.98 579.19,-609.6 583.06,-615.43"/>
<text text-anchor="middle" x="582" y="-628.8" font-family="Times-Roman" font-size="14.00">result</text>
</g>
<!-- v1 -->
<g id="node5" class="node">
<title>v1</title>
<polygon fill="none" stroke="#aec7e8" stroke-width="2" points="1089.5,-1709 808.5,-1709 808.5,-1656 1089.5,-1656 1089.5,-1709"/>
<text text-anchor="middle" x="949" y="-1693.8" font-family="Times-Roman" font-size="14.00">_mutable_inner</text>
<text text-anchor="middle" x="949" y="-1678.8" font-family="Times-Roman" font-size="14.00">(W: 1, TID: 1)</text>
<text text-anchor="middle" x="949" y="-1663.8" font-family="Times-Roman" font-size="14.00">[+2.737 s &#45;&gt; +4.043 s (diff: 1.306 s)]</text>
</g>
<!-- a10 -->
<g id="node20" class="node">
<title>a10</title>
<ellipse fill="none" stroke="black" cx="949" cy="-1571" rx="136.48" ry="18"/>
<text text-anchor="middle" x="949" y="-1567.3" font-family="Times-Roman" font-size="14.00">Data: 0x684bbf5382916f9c</text>
</g>
<!-- v1&#45;&gt;a10 -->
<g id="edge26" class="edge">
<title>v1&#45;&gt;a10</title>
<path fill="none" stroke="black" d="M949,-1655.83C949,-1638.87 949,-1616.66 949,-1599.37"/>
<polygon fill="black" stroke="black" points="952.5,-1599.32 949,-1589.32 945.5,-1599.32 952.5,-1599.32"/>
<text text-anchor="middle" x="969" y="-1626.8" font-family="Times-Roman" font-size="14.00">result</text>
</g>
<!-- v9 -->
<g id="node6" class="node">
<title>v9</title>
<polygon fill="none" stroke="#aec7e8" stroke-width="2" points="751,-140 447,-140 447,-87 751,-87 751,-140"/>
<text text-anchor="middle" x="599" y="-124.8" font-family="Times-Roman" font-size="14.00">notify_graph_finalization</text>
<text text-anchor="middle" x="599" y="-109.8" font-family="Times-Roman" font-size="14.00">(W: 1, TID: 1)</text>
<text text-anchor="middle" x="599" y="-94.8" font-family="Times-Roman" font-size="14.00">[+5.223 s &#45;&gt; +5.307 s (diff: 83.329 ms)]</text>
</g>
<!-- a23 -->
<g id="node13" class="node">
<title>a23</title>
<ellipse fill="none" stroke="black" cx="599" cy="-18" rx="139.18" ry="18"/>
<text text-anchor="middle" x="599" y="-14.3" font-family="Times-Roman" font-size="14.00">Data: 0x8f0d57a0d014a016</text>
</g>
<!-- v9&#45;&gt;a23 -->
<g id="edge27" class="edge">
<title>v9&#45;&gt;a23</title>
<path fill="none" stroke="black" d="M599,-86.95C599,-74.36 599,-59.17 599,-46.35"/>
<polygon fill="black" stroke="black" points="602.5,-46.24 599,-36.24 595.5,-46.24 602.5,-46.24"/>
<text text-anchor="middle" x="619" y="-57.8" font-family="Times-Roman" font-size="14.00">result</text>
</g>
<!-- v8&#45;&gt;v9 -->
<g id="edge10" class="edge">
<title>v8&#45;&gt;v9</title>
<path fill="none" stroke="black" d="M613.13,-364.92C610.11,-311.27 604.15,-205.71 601.02,-150.33"/>
<polygon fill="black" stroke="black" points="604.51,-150.07 600.45,-140.28 597.52,-150.46 604.51,-150.07"/>
<text text-anchor="middle" x="637.5" y="-248.8" font-family="Times-Roman" font-size="14.00">syncdep</text>
</g>
<!-- a20 -->
<g id="node22" class="node">
<title>a20</title>
<ellipse fill="none" stroke="black" cx="769" cy="-296" rx="141.88" ry="18"/>
<text text-anchor="middle" x="769" y="-292.3" font-family="Times-Roman" font-size="14.00">Data: 0x33427033987ed141</text>
</g>
<!-- v8&#45;&gt;a20 -->
<g id="edge28" class="edge">
<title>v8&#45;&gt;a20</title>
<path fill="none" stroke="black" d="M665.43,-364.93C688.04,-350.09 714.15,-332.97 734.49,-319.63"/>
<polygon fill="black" stroke="black" points="736.67,-322.39 743.12,-313.98 732.83,-316.53 736.67,-322.39"/>
<text text-anchor="middle" x="735" y="-335.8" font-family="Times-Roman" font-size="14.00">result</text>
</g>
<!-- v2 -->
<g id="node8" class="node">
<title>v2</title>
<polygon fill="none" stroke="#aec7e8" stroke-width="2" points="1380,-1709 1108,-1709 1108,-1656 1380,-1656 1380,-1709"/>
<text text-anchor="middle" x="1244" y="-1693.8" font-family="Times-Roman" font-size="14.00">_mutable_inner</text>
<text text-anchor="middle" x="1244" y="-1678.8" font-family="Times-Roman" font-size="14.00">(W: 1, TID: 1)</text>
<text text-anchor="middle" x="1244" y="-1663.8" font-family="Times-Roman" font-size="14.00">[+0.0 ns &#45;&gt; +1.833 s (diff: 1.833 s)]</text>
</g>
<!-- a3 -->
<g id="node21" class="node">
<title>a3</title>
<ellipse fill="none" stroke="black" cx="1244" cy="-1571" rx="139.18" ry="18"/>
<text text-anchor="middle" x="1244" y="-1567.3" font-family="Times-Roman" font-size="14.00">Data: 0x6338642af86ab997</text>
</g>
<!-- v2&#45;&gt;a3 -->
<g id="edge29" class="edge">
<title>v2&#45;&gt;a3</title>
<path fill="none" stroke="black" d="M1244,-1655.83C1244,-1638.87 1244,-1616.66 1244,-1599.37"/>
<polygon fill="black" stroke="black" points="1247.5,-1599.32 1244,-1589.32 1240.5,-1599.32 1247.5,-1599.32"/>
<text text-anchor="middle" x="1264" y="-1626.8" font-family="Times-Roman" font-size="14.00">result</text>
</g>
<!-- a15 -->
<g id="node9" class="node">
<title>a15</title>
<ellipse fill="none" stroke="black" cx="322" cy="-1088" rx="133.48" ry="18"/>
<text text-anchor="middle" x="322" y="-1084.3" font-family="Times-Roman" font-size="14.00">Data: 0x168e8f271ffc59b4</text>
</g>
<!-- a15&#45;&gt;v6 -->
<g id="edge14" class="edge">
<title>a15&#45;&gt;v6</title>
<path fill="none" stroke="black" d="M322,-1069.87C322,-1058.73 322,-1043.66 322,-1029.38"/>
<polygon fill="black" stroke="black" points="325.5,-1029.18 322,-1019.18 318.5,-1029.18 325.5,-1029.18"/>
<text text-anchor="middle" x="340.5" y="-1040.8" font-family="Times-Roman" font-size="14.00">arg 1</text>
</g>
<!-- a21 -->
<g id="node10" class="node">
<title>a21</title>
<ellipse fill="none" stroke="black" cx="431" cy="-209" rx="140.28" ry="18"/>
<text text-anchor="middle" x="431" y="-205.3" font-family="Times-Roman" font-size="14.00">Data: 0x8015e542e195b3cb</text>
</g>
<!-- a21&#45;&gt;v9 -->
<g id="edge18" class="edge">
<title>a21&#45;&gt;v9</title>
<path fill="none" stroke="black" d="M461.04,-191.28C484.11,-178.44 516.62,-160.35 544.28,-144.95"/>
<polygon fill="black" stroke="black" points="546.04,-147.98 553.07,-140.06 542.63,-141.86 546.04,-147.98"/>
<text text-anchor="middle" x="539.5" y="-161.8" font-family="Times-Roman" font-size="14.00">arg 1</text>
</g>
<!-- a19 -->
<g id="node17" class="node">
<title>a19</title>
<ellipse fill="none" stroke="black" cx="615" cy="-502" rx="135.68" ry="18"/>
<text text-anchor="middle" x="615" y="-498.3" font-family="Times-Roman" font-size="14.00">Data: 0x53cbfb14274f669e</text>
</g>
<!-- a18&#45;&gt;a19 -->
<g id="edge5" class="edge">
<title>a18&#45;&gt;a19</title>
<path fill="none" stroke="black" d="M615,-570.8C615,-559.16 615,-543.55 615,-530.24"/>
<polygon fill="black" stroke="black" points="618.5,-530.18 615,-520.18 611.5,-530.18 618.5,-530.18"/>
<text text-anchor="middle" x="634.5" y="-541.8" font-family="Times-Roman" font-size="14.00">move</text>
</g>
<!-- a11 -->
<g id="node12" class="node">
<title>a11</title>
<ellipse fill="none" stroke="black" cx="490" cy="-1682.5" rx="134.58" ry="18"/>
<text text-anchor="middle" x="490" y="-1678.8" font-family="Times-Roman" font-size="14.00">Data: 0x3bfc20abc693f16e</text>
</g>
<!-- a11&#45;&gt;v5 -->
<g id="edge12" class="edge">
<title>a11&#45;&gt;v5</title>
<path fill="none" stroke="black" d="M359.98,-1677.75C214.81,-1669.93 0,-1645.87 0,-1572 0,-1572 0,-1572 0,-1380 0,-1352.68 17.11,-1332.37 39.96,-1317.42"/>
<polygon fill="black" stroke="black" points="41.89,-1320.34 48.62,-1312.15 38.26,-1314.36 41.89,-1320.34"/>
<text text-anchor="middle" x="63" y="-1464.3" font-family="Times-Roman" font-size="14.00">kwarg coefficients</text>
</g>
<!-- a11&#45;&gt;v4 -->
<g id="edge13" class="edge">
<title>a11&#45;&gt;v4</title>
<path fill="none" stroke="black" d="M411.42,-1667.82C389.95,-1661.35 367.74,-1651.87 350,-1638 341.68,-1631.5 334.69,-1622.74 329.01,-1613.74"/>
<polygon fill="black" stroke="black" points="332.02,-1611.96 323.95,-1605.1 325.98,-1615.49 332.02,-1611.96"/>
<text text-anchor="middle" x="413" y="-1626.8" font-family="Times-Roman" font-size="14.00">kwarg coefficients</text>
</g>
<!-- a11&#45;&gt;v6 -->
<g id="edge15" class="edge">
<title>a11&#45;&gt;v6</title>
<path fill="none" stroke="black" d="M490,-1664.43C490,-1642.89 490,-1604.7 490,-1572 490,-1572 490,-1572 490,-1087 490,-1059.42 473.16,-1039.18 450.15,-1024.39"/>
<polygon fill="black" stroke="black" points="451.79,-1021.3 441.41,-1019.19 448.21,-1027.31 451.79,-1021.3"/>
<text text-anchor="middle" x="553" y="-1333.8" font-family="Times-Roman" font-size="14.00">kwarg coefficients</text>
</g>
<!-- a11&#45;&gt;v7 -->
<g id="edge17" class="edge">
<title>a11&#45;&gt;v7</title>
<path fill="none" stroke="black" d="M540.11,-1665.62C580.64,-1649.27 631,-1619.42 631,-1572 631,-1572 631,-1572 631,-794 631,-766.42 614.16,-746.18 591.15,-731.39"/>
<polygon fill="black" stroke="black" points="592.79,-728.3 582.41,-726.19 589.21,-734.31 592.79,-728.3"/>
<text text-anchor="middle" x="694" y="-1171.3" font-family="Times-Roman" font-size="14.00">kwarg coefficients</text>
</g>
<!-- a11&#45;&gt;v8 -->
<g id="edge21" class="edge">
<title>a11&#45;&gt;v8</title>
<path fill="none" stroke="black" d="M569.83,-1668C657.2,-1650.9 785,-1618.03 785,-1572 785,-1572 785,-1572 785,-501 785,-473.33 768.15,-453.07 745.06,-438.3"/>
<polygon fill="black" stroke="black" points="746.67,-435.19 736.28,-433.1 743.1,-441.21 746.67,-435.19"/>
<text text-anchor="middle" x="848" y="-1040.8" font-family="Times-Roman" font-size="14.00">kwarg coefficients</text>
</g>
<!-- a17 -->
<g id="node16" class="node">
<title>a17</title>
<ellipse fill="none" stroke="black" cx="463" cy="-795" rx="137.58" ry="18"/>
<text text-anchor="middle" x="463" y="-791.3" font-family="Times-Roman" font-size="14.00">Data: 0xada23ad6e006d59f</text>
</g>
<!-- a16&#45;&gt;a17 -->
<g id="edge3" class="edge">
<title>a16&#45;&gt;a17</title>
<path fill="none" stroke="black" d="M463,-863.8C463,-852.16 463,-836.55 463,-823.24"/>
<polygon fill="black" stroke="black" points="466.5,-823.18 463,-813.18 459.5,-823.18 466.5,-823.18"/>
<text text-anchor="middle" x="482.5" y="-834.8" font-family="Times-Roman" font-size="14.00">move</text>
</g>
<!-- a13 -->
<g id="node18" class="node">
<title>a13</title>
<ellipse fill="none" stroke="black" cx="319" cy="-1381" rx="135.68" ry="18"/>
<text text-anchor="middle" x="319" y="-1377.3" font-family="Times-Roman" font-size="14.00">Data: 0xf8047b979f3e0c6b</text>
</g>
<!-- a12&#45;&gt;a13 -->
<g id="edge1" class="edge">
<title>a12&#45;&gt;a13</title>
<path fill="none" stroke="black" d="M321.39,-1449.8C320.98,-1438.16 320.43,-1422.55 319.96,-1409.24"/>
<polygon fill="black" stroke="black" points="323.46,-1409.05 319.61,-1399.18 316.46,-1409.29 323.46,-1409.05"/>
<text text-anchor="middle" x="340.5" y="-1420.8" font-family="Times-Roman" font-size="14.00">move</text>
</g>
<!-- a17&#45;&gt;v7 -->
<g id="edge16" class="edge">
<title>a17&#45;&gt;v7</title>
<path fill="none" stroke="black" d="M463,-776.87C463,-765.73 463,-750.66 463,-736.38"/>
<polygon fill="black" stroke="black" points="466.5,-736.18 463,-726.18 459.5,-736.18 466.5,-736.18"/>
<text text-anchor="middle" x="481.5" y="-747.8" font-family="Times-Roman" font-size="14.00">arg 1</text>
</g>
<!-- a19&#45;&gt;v8 -->
<g id="edge20" class="edge">
<title>a19&#45;&gt;v8</title>
<path fill="none" stroke="black" d="M615,-483.87C615,-472.73 615,-457.66 615,-443.38"/>
<polygon fill="black" stroke="black" points="618.5,-443.18 615,-433.18 611.5,-443.18 618.5,-443.18"/>
<text text-anchor="middle" x="633.5" y="-454.8" font-family="Times-Roman" font-size="14.00">arg 1</text>
</g>
<!-- a13&#45;&gt;v5 -->
<g id="edge11" class="edge">
<title>a13&#45;&gt;v5</title>
<path fill="none" stroke="black" d="M291.92,-1363.32C271.65,-1350.84 243.09,-1333.25 217.3,-1317.37"/>
<polygon fill="black" stroke="black" points="219.02,-1314.32 208.67,-1312.05 215.35,-1320.28 219.02,-1314.32"/>
<text text-anchor="middle" x="280.5" y="-1333.8" font-family="Times-Roman" font-size="14.00">arg 1</text>
</g>
<!-- a14&#45;&gt;a15 -->
<g id="edge2" class="edge">
<title>a14&#45;&gt;a15</title>
<path fill="none" stroke="black" d="M322,-1156.8C322,-1145.16 322,-1129.55 322,-1116.24"/>
<polygon fill="black" stroke="black" points="325.5,-1116.18 322,-1106.18 318.5,-1116.18 325.5,-1116.18"/>
<text text-anchor="middle" x="341.5" y="-1127.8" font-family="Times-Roman" font-size="14.00">move</text>
</g>
<!-- a22 -->
<g id="node23" class="node">
<title>a22</title>
<ellipse fill="none" stroke="black" cx="766" cy="-209" rx="135.68" ry="18"/>
<text text-anchor="middle" x="766" y="-205.3" font-family="Times-Roman" font-size="14.00">Data: 0xfd3e7fcd3d95d0d4</text>
</g>
<!-- a20&#45;&gt;a22 -->
<g id="edge4" class="edge">
<title>a20&#45;&gt;a22</title>
<path fill="none" stroke="black" d="M768.39,-277.8C767.98,-266.16 767.43,-250.55 766.96,-237.24"/>
<polygon fill="black" stroke="black" points="770.46,-237.05 766.61,-227.18 763.46,-237.29 770.46,-237.05"/>
<text text-anchor="middle" x="787.5" y="-248.8" font-family="Times-Roman" font-size="14.00">move</text>
</g>
<!-- a22&#45;&gt;v9 -->
<g id="edge19" class="edge">
<title>a22&#45;&gt;v9</title>
<path fill="none" stroke="black" d="M736.14,-191.28C713.2,-178.44 680.89,-160.35 653.39,-144.95"/>
<polygon fill="black" stroke="black" points="655.09,-141.89 644.65,-140.06 651.67,-148 655.09,-141.89"/>
<text text-anchor="middle" x="721.5" y="-161.8" font-family="Times-Roman" font-size="14.00">arg 3</text>
</g>
</g>
</svg>
