<?xml version="1.0" encoding="UTF-8" standalone="no"?>
<!DOCTYPE svg PUBLIC "-//W3C//DTD SVG 1.1//EN"
 "http://www.w3.org/Graphics/SVG/1.1/DTD/svg11.dtd">
<!-- Generated by graphviz version 2.44.0 (0)
 -->
<!-- Title: G Pages: 1 -->
<svg width="681pt" height="44pt"
 viewBox="0.00 0.00 681.00 44.00" xmlns="http://www.w3.org/2000/svg" xmlns:xlink="http://www.w3.org/1999/xlink">
<g id="graph0" class="graph" transform="scale(1 1) rotate(0) translate(4 40)">
<title>G</title>
<polygon fill="white" stroke="transparent" points="-4,4 -4,-40 677,-40 677,4 -4,4"/>
<!-- 1 -->
<g id="node1" class="node">
<title>1</title>
<polygon fill="none" stroke="black" points="88,-36 0,-36 0,0 88,0 88,-36"/>
<text text-anchor="middle" x="44" y="-14.3" font-family="Times-Roman" font-size="14.00">ProducerA</text>
</g>
<!-- 2 -->
<g id="node2" class="node">
<title>2</title>
<polygon fill="none" stroke="black" points="234,-36 124,-36 124,0 234,0 234,-36"/>
<text text-anchor="middle" x="179" y="-14.3" font-family="Times-Roman" font-size="14.00">TransformerA</text>
</g>
<!-- 1&#45;&gt;2 -->
<g id="edge1" class="edge">
<title>1&#45;&gt;2</title>
<path fill="none" stroke="black" d="M88.18,-18C96.36,-18 105.08,-18 113.74,-18"/>
<polygon fill="black" stroke="black" points="113.85,-21.5 123.85,-18 113.85,-14.5 113.85,-21.5"/>
</g>
<!-- 3 -->
<g id="node3" class="node">
<title>3</title>
<polygon fill="none" stroke="black" points="380,-36 270,-36 270,0 380,0 380,-36"/>
<text text-anchor="middle" x="325" y="-14.3" font-family="Times-Roman" font-size="14.00">TransformerB</text>
</g>
<!-- 2&#45;&gt;3 -->
<g id="edge2" class="edge">
<title>2&#45;&gt;3</title>
<path fill="none" stroke="black" d="M234.03,-18C242.31,-18 250.94,-18 259.42,-18"/>
<polygon fill="black" stroke="black" points="259.67,-21.5 269.67,-18 259.67,-14.5 259.67,-21.5"/>
</g>
<!-- 4 -->
<g id="node4" class="node">
<title>4</title>
<polygon fill="none" stroke="black" points="526,-36 416,-36 416,0 526,0 526,-36"/>
<text text-anchor="middle" x="471" y="-14.3" font-family="Times-Roman" font-size="14.00">TransformerC</text>
</g>
<!-- 3&#45;&gt;4 -->
<g id="edge3" class="edge">
<title>3&#45;&gt;4</title>
<path fill="none" stroke="black" d="M380.03,-18C388.31,-18 396.94,-18 405.42,-18"/>
<polygon fill="black" stroke="black" points="405.67,-21.5 415.67,-18 405.67,-14.5 405.67,-21.5"/>
</g>
<!-- 5 -->
<g id="node5" class="node">
<title>5</title>
<polygon fill="none" stroke="black" points="673,-36 562,-36 562,0 673,0 673,-36"/>
<text text-anchor="middle" x="617.5" y="-14.3" font-family="Times-Roman" font-size="14.00">TransformerD</text>
</g>
<!-- 4&#45;&gt;5 -->
<g id="edge4" class="edge">
<title>4&#45;&gt;5</title>
<path fill="none" stroke="black" d="M526.22,-18C534.62,-18 543.37,-18 551.98,-18"/>
<polygon fill="black" stroke="black" points="551.98,-21.5 561.98,-18 551.98,-14.5 551.98,-21.5"/>
</g>
</g>
</svg>
